<svg id="Calque_1" data-name="Calque 1" xmlns="http://www.w3.org/2000/svg" viewBox="0 0 245.62 71.68"><defs><style>.cls-1,.cls-2,.cls-3{fill:#1d1d1b;stroke:#1d1d1b;stroke-miterlimit:10;}.cls-1{stroke-width:2px;}.cls-2{stroke-width:7px;}.cls-3{stroke-width:3px;}</style></defs><path class="cls-1" d="M178.59,256.43l3.47,14.15c.75,3.11,1.46,6,1.95,8.86h.16c.59-2.82,1.46-5.81,2.33-8.8l4.27-14.21h4l4.06,13.92c1,3.34,1.74,6.27,2.33,9.09h.16a89.1,89.1,0,0,1,2-9l3.73-14h4.72l-8.45,27.85H199L195,271c-.92-3.11-1.68-5.87-2.33-9.15h-.11a86.89,86.89,0,0,1-2.38,9.2L186,284.28h-4.33l-7.9-27.85Z" transform="translate(-152.75 -214.28)"/><path class="cls-1" d="M218,256.43l3.46,14.15c.76,3.11,1.47,6,1.95,8.86h.17c.59-2.82,1.46-5.81,2.33-8.8l4.27-14.21h4l4.06,13.92c1,3.34,1.74,6.27,2.33,9.09h.16a89.1,89.1,0,0,1,2-9l3.73-14h4.71l-8.44,27.85h-4.34l-4-13.29c-.92-3.11-1.68-5.87-2.33-9.15H232a86.89,86.89,0,0,1-2.38,9.2l-4.23,13.24H221l-7.9-27.85Z" transform="translate(-152.75 -214.28)"/><path class="cls-1" d="M260.19,248.61a3,3,0,1,1-5.9,0,3,3,0,0,1,3-3.17A2.93,2.93,0,0,1,260.19,248.61Zm-5.31,35.67V256.43h4.77v27.85Z" transform="translate(-152.75 -214.28)"/><path class="cls-2" d="M268.48,234.14a71.38,71.38,0,0,1,11.91-1c8,0,13.77,2.09,17.57,6.05s6.12,9.58,6.12,17.43-2.19,14.4-6.25,18.86-10.75,7-19.18,7a80.81,80.81,0,0,1-10.17-.58Zm5.6,42.92a32.33,32.33,0,0,0,5.66.36c12,0,18.48-7.49,18.48-20.6.06-11.45-5.73-18.72-17.58-18.72a28.52,28.52,0,0,0-6.56.65Z" transform="translate(-152.75 -214.28)"/><path class="cls-2" d="M335.9,259.27H317v17.5h21V282H310.77V233.49H337v5.26H317v15.34H335.9Z" transform="translate(-152.75 -214.28)"/><path class="cls-2" d="M356.05,282.06l-15.84-48.53H347l7.56,23.9c2.09,6.56,3.89,12.46,5.19,18.15h.14c1.37-5.62,3.38-11.74,5.55-18.07l8.2-24h6.7L363,282.06Z" transform="translate(-152.75 -214.28)"/><path class="cls-3" d="M154.25,283.78V216.59h13.18v4.64h-8.28v57.91h8.28v4.64Z" transform="translate(-152.75 -214.28)"/><path class="cls-3" d="M396.87,215.78V283H383.69v-4.64H392V220.42h-8.28v-4.64Z" transform="translate(-152.75 -214.28)"/></svg>